<svg id="Layer_1" data-name="Layer 1" xmlns="http://www.w3.org/2000/svg" viewBox="0 0 459.77 41.36"><title>PASVG</title><path d="M335,295.61h16.4c8.42,0,14.15,4.73,14.15,12.38,0,8.55-6.37,12.67-14.4,12.67h-8.48v15.76H335Zm7.67,18.87h7.66c4.6,0,7.46-2,7.46-6.33s-3.16-6.36-7.26-6.36h-7.86Z" transform="translate(-334.99 -295.61)"/><path d="M392,295.61V320c0,8.45,4.46,10.87,9.15,10.87,5.41,0,9-2.77,9-10.87v-24.4h7.67v24c0,13.71-7.87,17.35-16.76,17.35s-16.71-3.85-16.71-17.11V295.61Z" transform="translate(-334.99 -295.61)"/><path d="M439.41,295.61h16.41c8.42,0,14.15,4.73,14.15,12.38,0,8.55-6.37,12.67-14.4,12.67h-8.49v15.76h-7.67Zm7.67,18.87h7.67c4.6,0,7.46-2,7.46-6.33s-3.17-6.36-7.27-6.36h-7.86Z" transform="translate(-334.99 -295.61)"/><path d="M522.52,326l-3.6,10.39h-7.55l14.09-40.81H535l14.7,40.81h-8.08L537.9,326Zm13.65-6.34c-3.23-9.34-5.18-14.91-6.13-18.38H530c-1,3.83-3.16,10.4-5.76,18.38Z" transform="translate(-334.99 -295.61)"/><path d="M567.15,295.61h16.4c8.42,0,14.15,4.73,14.15,12.38,0,8.55-6.37,12.67-14.4,12.67h-8.48v15.76h-7.67Zm7.67,18.87h7.66c4.6,0,7.46-2,7.46-6.33s-3.16-6.36-7.26-6.36h-7.86Z" transform="translate(-334.99 -295.61)"/><path d="M616.47,295.61h16.41c8.42,0,14.15,4.73,14.15,12.38,0,8.55-6.38,12.67-14.4,12.67h-8.49v15.76h-7.67Zm7.67,18.87h7.67c4.6,0,7.45-2,7.45-6.33s-3.16-6.36-7.26-6.36h-7.86Z" transform="translate(-334.99 -295.61)"/><path d="M693,318.32H673.24v11.76H695l-.93,6.34H665.79V295.61h28.13V302H673.24v10H693Z" transform="translate(-334.99 -295.61)"/><path d="M721.82,326l-3.6,10.39h-7.54l14.08-40.81h9.57L749,336.42H741L737.2,326Zm13.66-6.34c-3.24-9.34-5.19-14.91-6.14-18.38h-.06c-1,3.83-3.16,10.4-5.76,18.38Z" transform="translate(-334.99 -295.61)"/><path d="M766.45,295.61h7.65v34.47h20.66l-.92,6.34H766.45Z" transform="translate(-334.99 -295.61)"/></svg>